<svg xmlns:xlink="http://www.w3.org/1999/xlink" xmlns="http://www.w3.org/2000/svg" viewBox="0 0 200 146.51826220237575" preserveAspectRatio="xMidYMid meet" class="css-1nkzpyt" id="ddghddfe" width="100"  height="73.25913110118788" ><defs id="SvgjsDefs1001"></defs><g id="SvgjsG1007" featurekey="rDwwlG-0" transform="matrix(3.125,0,0,3.125,50,0)" fill="#0D0C0C"><g xmlns="http://www.w3.org/2000/svg" display="none" fill="#0D0C0C"><rect x="-153.365" y="-18.667" display="inline" fill="#0D0C0C" width="473.333" height="236"></rect></g><g xmlns="http://www.w3.org/2000/svg" display="none" fill="#0D0C0C"><ellipse transform="matrix(0.7071 -0.7071 0.7071 0.7071 -6.6274 16)" display="inline" cx="16" cy="16" rx="16" ry="16" fill="#0D0C0C"></ellipse><line display="inline" fill="#0D0C0C" stroke="#0D0C0C" stroke-miterlimit="10" x1="7.837" y1="15.12" x2="15.267" y2="7.69"></line><line display="inline" fill="#0D0C0C" stroke="#0D0C0C" stroke-miterlimit="10" x1="7.968" y1="19.579" x2="20.033" y2="7.514"></line><line display="inline" fill="#0D0C0C" stroke="#0D0C0C" stroke-miterlimit="10" x1="7.759" y1="24.377" x2="24.241" y2="7.896"></line><line display="inline" fill="#0D0C0C" stroke="#0D0C0C" stroke-miterlimit="10" x1="12.518" y1="24.209" x2="24.064" y2="12.662"></line><line display="inline" fill="#0D0C0C" stroke="#0D0C0C" stroke-miterlimit="10" x1="16.83" y1="24.486" x2="24.22" y2="17.096"></line></g><g xmlns="http://www.w3.org/2000/svg" fill="#0D0C0C"><path d="M16,0C11.905,0,7.81,1.562,4.686,4.686c-6.248,6.248-6.248,16.379,0,22.627C7.81,30.438,11.905,32,16,32   c4.095,0,8.19-1.562,11.314-4.686c6.248-6.248,6.248-16.379,0-22.627C24.19,1.562,20.095,0,16,0z M26.607,26.607   C23.773,29.44,20.007,31,16,31s-7.773-1.56-10.607-4.393c-5.849-5.849-5.849-15.365,0-21.213C8.227,2.56,11.993,1,16,1   s7.773,1.56,10.607,4.393C32.455,11.242,32.455,20.758,26.607,26.607z" fill="#0D0C0C"></path><rect x="6.298" y="10.905" transform="matrix(0.7071 -0.7071 0.7071 0.7071 -4.681 11.5091)" width="10.508" height="1" fill="#0D0C0C"></rect><rect x="5.469" y="13.046" transform="matrix(0.7071 -0.7071 0.7071 0.7071 -5.4781 13.8675)" width="17.063" height="1" fill="#0D0C0C"></rect><rect x="4.346" y="15.637" transform="matrix(0.7071 -0.7071 0.7071 0.7071 -6.7239 16.04)" width="23.307" height="1" fill="#0D0C0C"></rect><rect x="10.126" y="17.936" transform="matrix(0.7071 -0.7071 0.7071 0.7071 -7.6786 18.3333)" width="16.33" height="1" fill="#0D0C0C"></rect><rect x="15.3" y="20.292" transform="matrix(0.7071 -0.7071 0.7071 0.7071 -8.6902 20.603)" width="10.451" height="1" fill="#0D0C0C"></rect></g><g xmlns="http://www.w3.org/2000/svg" display="none" fill="#0D0C0C"><g display="inline" fill="#0D0C0C"><path fill="#0D0C0C" d="M16,31.5c-4.141,0-8.032-1.612-10.96-4.54S0.5,20.141,0.5,16c0-4.14,1.612-8.033,4.54-10.96    C7.968,2.112,11.859,0.5,16,0.5s8.032,1.612,10.96,4.54C29.888,7.967,31.5,11.86,31.5,16c0,4.141-1.612,8.032-4.54,10.96    S20.141,31.5,16,31.5z"></path><g fill="#0D0C0C"><path fill="#0D0C0C" d="M16,1c4.007,0,7.773,1.56,10.607,4.393c5.848,5.849,5.848,15.365,0,21.213C23.773,29.44,20.007,31,16,31     c-4.007,0-7.773-1.56-10.607-4.393c-5.849-5.849-5.849-15.365,0-21.213C8.227,2.56,11.993,1,16,1 M16,0     C11.905,0,7.81,1.562,4.686,4.686c-6.248,6.248-6.248,16.379,0,22.627C7.81,30.438,11.905,32,16,32s8.19-1.562,11.314-4.686     c6.248-6.248,6.248-16.379,0-22.627C24.19,1.562,20.095,0,16,0L16,0z"></path></g></g><line display="inline" fill="#0D0C0C" stroke="#0D0C0C" stroke-miterlimit="10" x1="7.837" y1="15.12" x2="15.267" y2="7.69"></line><line display="inline" fill="#0D0C0C" stroke="#0D0C0C" stroke-miterlimit="10" x1="7.968" y1="19.579" x2="20.033" y2="7.514"></line><line display="inline" fill="#0D0C0C" stroke="#0D0C0C" stroke-miterlimit="10" x1="7.759" y1="24.377" x2="24.241" y2="7.896"></line><line display="inline" fill="#0D0C0C" stroke="#0D0C0C" stroke-miterlimit="10" x1="12.518" y1="24.209" x2="24.064" y2="12.662"></line><line display="inline" fill="#0D0C0C" stroke="#0D0C0C" stroke-miterlimit="10" x1="16.83" y1="24.486" x2="24.22" y2="17.096"></line></g><g xmlns="http://www.w3.org/2000/svg" display="none" fill="#0D0C0C"><path display="inline" d="M4.686,4.686c-6.248,6.248-6.248,16.379,0,22.627c6.248,6.248,16.379,6.248,22.627,0   c6.248-6.248,6.248-16.379,0-22.627C21.065-1.562,10.935-1.562,4.686,4.686z M19.68,7.16l0.707,0.707L8.321,19.933l-0.707-0.707   L19.68,7.16z M14.914,7.336l0.707,0.707l-7.431,7.43l-0.707-0.707L14.914,7.336z M12.871,24.562l-0.707-0.707l11.547-11.547   l0.707,0.707L12.871,24.562z M17.184,24.84l-0.707-0.707l7.39-7.39l0.707,0.707L17.184,24.84z M8.113,24.73l-0.707-0.707   l16.48-16.481l0.707,0.707L8.113,24.73z" fill="#0D0C0C"></path></g></g><g id="SvgjsG1008" featurekey="4AZ1rv-0" transform="matrix(1.9527436396756532,0,0,1.9527436396756532,-3.1634463350822393,107.07284012224314)" fill="#0F0E0E"><path d="M8.14 15.379999999999999 l0 -0.62 c0 -0.1 0.08 -0.18 0.18 -0.18 l2.28 0 c0.1 0 0.18 0.08 0.18 0.18 l0 1.26 c0 2.94 -1.58 4.18 -4.56 4.18 c-2.78 0 -4.6 -1.1 -4.6 -4.18 l0 -5.26 c0 -2.96 1.62 -4.14 4.6 -4.14 c2.82 0 4.56 1.08 4.56 4.14 l0 0.42 c0 0.1 -0.08 0.18 -0.18 0.18 l-2.3 0 c-0.1 0 -0.18 -0.08 -0.18 -0.18 l0 -0.32 c0 -1.1 -0.82 -1.56 -1.8 -1.56 l-0.24 0 c-0.66 0 -1.1 0.18 -1.4 0.58 c-0.28 0.38 -0.38 0.88 -0.38 1.54 l0 3.96 c0 1.74 0.98 2.12 1.78 2.12 l0.24 0 c1.26 0 1.78 -0.84 1.82 -2.12 z M6.18 7.859999999999999 c-2.14 0 -3.38 0.76 -3.38 3.2 l0 4.82 c0 2.22 1.14 3.04 3.38 3.04 c2.1 0 3.36 -0.76 3.36 -3.06 c0 -0.16 -0.24 -0.16 -0.24 0 c0 2.02 -1.1 2.84 -3.12 2.84 c-1.96 0 -3.16 -0.68 -3.16 -2.82 l0 -4.82 c0 -2.08 0.98 -2.98 3.16 -2.98 c2.84 0 2.94 1.8 2.94 2 c0 0.18 0.28 0.2 0.28 0 c0 -1.66 -1.68 -2.22 -3.22 -2.22 z M16.220000000000002 9.3 l-2.84 0 c-0.1 0 -0.18 -0.08 -0.18 -0.18 l0 -2.14 c0 -0.1 0.08 -0.18 0.18 -0.18 l8.34 0 c0.1 0 0.18 0.08 0.18 0.18 l0 2.14 c0 0.1 -0.08 0.18 -0.18 0.18 l-2.84 0 l0 10.52 c0 0.1 -0.08 0.18 -0.18 0.18 l-2.3 0 c-0.1 0 -0.18 -0.08 -0.18 -0.18 l0 -10.52 z M20.5 7.9 l-6.04 0 c-0.14 0 -0.14 0.26 0 0.26 l2.96 0 l0 10.6 c0 0.14 0.26 0.14 0.26 0 l0 -10.6 l2.82 0 c0.2 0 0.18 -0.26 0 -0.26 z M29.2 11.9 c1.52 0.72 3.5 1.86 3.5 3.92 c0 0.6 -0.1 1.76 -0.76 2.74 c-0.74 1.1 -1.9 1.64 -3.5 1.64 c-1.7 0 -3.68 -0.82 -4.3 -2.68 c-0.02 -0.06 0 -0.12 0.06 -0.16 l1.84 -1.58 c0.08 -0.06 0.2 -0.06 0.26 0.04 c0.04 0.1 0.12 0.26 0.22 0.46 c0.3 0.62 1.02 1.24 1.82 1.24 c0.62 0 1.46 -0.34 1.46 -1.3 c0 -0.92 -1.26 -1.44 -2.04 -1.74 c-0.9 -0.36 -1.82 -0.82 -2.6 -1.5 c-0.82 -0.76 -1.22 -1.6 -1.22 -2.6 c0 -2.5 2.3 -3.76 4.48 -3.76 c1.72 0 3 0.9 3.84 2.68 c0.04 0.08 0 0.18 -0.06 0.22 l-1.78 1.24 c-0.08 0.04 -0.12 0.04 -0.2 -0.06 c-0.68 -0.98 -1.28 -1.44 -2.08 -1.44 c-0.42 0 -1.4 0.16 -1.4 0.9 c0 0.9 1.66 1.36 2.46 1.74 z M25.560000000000002 17.42 c0.5 1 1.88 1.58 3 1.58 c1.46 0 2.64 -1 2.8 -2.52 c0.2 -1.86 -1.26 -2.66 -2.7 -3.38 l-0.64 -0.28 c-1.48 -0.66 -2.56 -1.16 -2.56 -2.54 c0 -1.52 1.4 -2.22 2.78 -2.22 c1.26 0 1.92 0.74 2.26 1.2 c0.12 0.16 0.32 0.02 0.2 -0.14 c-0.34 -0.42 -1.06 -1.3 -2.46 -1.3 c-1.58 0 -3.02 0.78 -3.02 2.46 c0 1.5 1.2 2.08 2.72 2.78 l0.62 0.3 c1.98 0.94 2.7 1.82 2.54 3.1 c-0.3 2.04 -1.86 2.3 -2.54 2.3 c-1.5 0 -2.5 -0.9 -2.8 -1.46 c-0.1 -0.1 -0.24 0 -0.2 0.12 z M48.339999999999996 6.800000000000001 c1.36 0 2.38 0.38 3.06 1.12 c0.6 0.66 0.9 1.64 0.9 2.84 l0 5.3 c0 2.42 -1.4 3.94 -3.96 3.94 l-5 0 c-0.1 0 -0.16 -0.08 -0.16 -0.18 l0 -12.84 c0 -0.1 0.06 -0.18 0.16 -0.18 l5 0 z M49.68 15.46 l0 -4.1 c0 -1.26 -0.66 -2.06 -2.06 -2.06 l-1.8 0 l0 8.2 l1.8 0 c1.2 0 2.06 -0.78 2.06 -2.04 z M44.4 8.02 l0 10.76 c0 0.08 0.08 0.1 0.12 0.1 l3.26 0 c2.3 0 3.34 -1.38 3.34 -2.66 l0 -5.12 c0 -2.12 -1.12 -3.2 -3.4 -3.2 l-3.2 0 c-0.04 0 -0.12 0.02 -0.12 0.12 z M50.879999999999995 11.1 l0 5.12 c0 1.6 -1.6 2.44 -3.1 2.44 l-3.14 0 l0 -10.5 l3.08 0 c2.1 0 3.16 0.94 3.16 2.94 z M55.96 20 c-0.1 0 -0.16 -0.08 -0.16 -0.18 l0 -12.84 c0 -0.1 0.06 -0.18 0.16 -0.18 l6.8 0 c0.1 0 0.18 0.08 0.18 0.18 l0 2.14 c0 0.1 -0.08 0.18 -0.18 0.18 l-4.32 0 l0 2.72 l3.36 0 c0.1 0 0.16 0.08 0.16 0.18 l0 2.18 c0 0.1 -0.06 0.18 -0.16 0.18 l-3.36 0 l0 2.94 l4.32 0 c0.1 0 0.18 0.08 0.18 0.18 l0 2.14 c0 0.1 -0.08 0.18 -0.18 0.18 l-6.8 0 z M56.96 8.06 l0 10.64 c0 0.12 0.08 0.16 0.16 0.16 l4.6 0 c0.18 0 0.14 -0.24 0 -0.24 l-4.5 0 l0 -5.22 l3.68 0 c0.12 0 0.12 -0.28 0 -0.28 l-3.68 0 l0 -4.96 l4.5 0 c0.14 0 0.18 -0.26 0 -0.26 l-4.6 0 c-0.08 0 -0.16 0.06 -0.16 0.16 z M70.82 11.9 c1.52 0.72 3.5 1.86 3.5 3.92 c0 0.6 -0.1 1.76 -0.76 2.74 c-0.74 1.1 -1.9 1.64 -3.5 1.64 c-1.7 0 -3.68 -0.82 -4.3 -2.68 c-0.02 -0.06 0 -0.12 0.06 -0.16 l1.84 -1.58 c0.08 -0.06 0.2 -0.06 0.26 0.04 c0.04 0.1 0.12 0.26 0.22 0.46 c0.3 0.62 1.02 1.24 1.82 1.24 c0.62 0 1.46 -0.34 1.46 -1.3 c0 -0.92 -1.26 -1.44 -2.04 -1.74 c-0.9 -0.36 -1.82 -0.82 -2.6 -1.5 c-0.82 -0.76 -1.22 -1.6 -1.22 -2.6 c0 -2.5 2.3 -3.76 4.48 -3.76 c1.72 0 3 0.9 3.84 2.68 c0.04 0.08 0 0.18 -0.06 0.22 l-1.78 1.24 c-0.08 0.04 -0.12 0.04 -0.2 -0.06 c-0.68 -0.98 -1.28 -1.44 -2.08 -1.44 c-0.42 0 -1.4 0.16 -1.4 0.9 c0 0.9 1.66 1.36 2.46 1.74 z M67.17999999999999 17.42 c0.5 1 1.88 1.58 3 1.58 c1.46 0 2.64 -1 2.8 -2.52 c0.2 -1.86 -1.26 -2.66 -2.7 -3.38 l-0.64 -0.28 c-1.48 -0.66 -2.56 -1.16 -2.56 -2.54 c0 -1.52 1.4 -2.22 2.78 -2.22 c1.26 0 1.92 0.74 2.26 1.2 c0.12 0.16 0.32 0.02 0.2 -0.14 c-0.34 -0.42 -1.06 -1.3 -2.46 -1.3 c-1.58 0 -3.02 0.78 -3.02 2.46 c0 1.5 1.2 2.08 2.72 2.78 l0.62 0.3 c1.98 0.94 2.7 1.82 2.54 3.1 c-0.3 2.04 -1.86 2.3 -2.54 2.3 c-1.5 0 -2.5 -0.9 -2.8 -1.46 c-0.1 -0.1 -0.24 0 -0.2 0.12 z M77.48 20 c-0.1 0 -0.16 -0.08 -0.16 -0.18 l0 -12.84 c0 -0.1 0.06 -0.18 0.16 -0.18 l2.28 0 c0.1 0 0.18 0.08 0.18 0.18 l0 12.84 c0 0.1 -0.08 0.18 -0.18 0.18 l-2.28 0 z M78.52 8 l0 10.78 c0 0.18 0.22 0.18 0.22 0 l0 -10.78 c0 -0.14 -0.22 -0.14 -0.22 0 z M87.75999999999999 15.2 c-0.1 0 -0.18 -0.08 -0.18 -0.18 l0 -2.14 c0 -0.1 0.08 -0.18 0.18 -0.18 l4.58 0 c0.1 0 0.18 0.08 0.18 0.18 l0 3.14 c0 2.94 -1.58 4.18 -4.56 4.18 c-2.78 0 -4.6 -1.1 -4.6 -4.18 l0 -5.26 c0 -2.9 1.62 -4.14 4.6 -4.14 c2.8 0 4.56 1.08 4.56 4.14 l0 0.42 c0 0.1 -0.08 0.18 -0.18 0.18 l-2.3 0 c-0.1 0 -0.18 -0.08 -0.18 -0.18 l0 -0.26 c0 -1.22 -0.78 -1.62 -1.8 -1.62 l-0.24 0 c-0.66 0 -1.1 0.18 -1.4 0.58 c-0.28 0.38 -0.38 0.88 -0.38 1.54 l0 3.96 c0 1.74 0.94 2.12 1.78 2.12 l0.24 0 c1.22 0 1.8 -0.84 1.8 -2.12 l0 -0.18 l-2.1 0 z M84.58 15.879999999999999 c0 2.22 1.08 3.04 3.36 3.04 c2.4 0 3.38 -1 3.38 -3.46 l0 -1.5 c0 -0.06 -0.04 -0.14 -0.08 -0.14 l-2.78 0 c-0.18 0 -0.14 0.26 0 0.26 l2.62 0 l0 1.38 c0 2.14 -0.82 3.24 -3.14 3.24 c-1.92 0 -3.12 -0.68 -3.12 -2.82 l0 -4.82 c0 -2.06 0.94 -2.98 3.12 -2.98 c1.62 0 3.1 0.9 2.98 2.28 c0 0.16 0.22 0.2 0.26 0.02 c0 -1.76 -1.6 -2.52 -3.24 -2.52 c-2 0 -3.36 0.72 -3.36 3.2 l0 4.82 z M101.38 6.98 c0 -0.1 0.08 -0.18 0.18 -0.18 l2.3 0 c0.1 0 0.18 0.08 0.18 0.18 l0 12.84 c0 0.1 -0.08 0.18 -0.18 0.18 l-2.22 0 c-0.08 0 -0.16 -0.04 -0.18 -0.1 l-2.92 -6.58 l0 6.5 c0 0.1 -0.08 0.18 -0.18 0.18 l-2.28 0 c-0.1 0 -0.16 -0.08 -0.16 -0.18 l0 -12.84 c0 -0.1 0.06 -0.18 0.16 -0.18 l2.36 0 c0.08 0 0.12 0.06 0.14 0.1 l2.8 6.46 l0 -6.38 z M102.82 18.8 l0 -10.8 c0 -0.14 -0.26 -0.18 -0.26 0 l0 10.28 l-5.22 -10.32 c-0.06 -0.08 -0.22 -0.08 -0.22 0.04 l0 10.78 c0 0.18 0.24 0.18 0.24 0 l0 -10.26 l5.2 10.3 c0.08 0.14 0.26 0.1 0.26 -0.02 z" fill="#0F0E0E"></path></g></svg>