<?xml version="1.0" encoding="utf-8"?>
<svg viewBox="-1.743 -2.735 250.966 252.97" xmlns="http://www.w3.org/2000/svg">
  <g id="SvgjsG1007" featurekey="rootContainer" transform="matrix(2.294656, 0, 0, 2.294656, 0, 0)" fill="#111111">
    <path xmlns="http://www.w3.org/2000/svg" d="M4.6 5.1h98.3v24.1c.1 2.9.1 6 .2 8.1s.1 1 .1.8a61.5 61.5 0 0 0 .3-6.7v-4.2c.1-6.7 0-13.5 0-20.2V4.3H4.6V.8h102.3v24.1c.1 2.9.1 6 .2 8.1s.1 1 .1.8a61.5 61.5 0 0 0 .3-6.7v-4.2c.1-6.7 0-13.5 0-20.2V0H4v4.5H0v47.1c.1 2.7.1 5.8 0 8.7v47.6h43.5l16.7-.2h10.9a64.7 64.7 0 0 0 8.1-.3H.7V36.7C.6 31.5.6 26.3.6 21V5.1H4v42.1c-.1 2.7-.1 5.8-.1 8.8v47.6h43.6l16.7-.2h10.9a64.7 64.7 0 0 0 8.1-.3H4.7V16.7c0-5.3-.1-7.7-.1-11.6zm103 53.2v-4.7l-.2-7.8c-.1-3.2-.2-3.8-.3-3.8 0 1.9-.1 3.9-.1 5.9v17.3c0 3.1 0 6.3-.1 9.2v15.7c0 3.3 0 6.3.1 9.3v3.9l-1.9-.2h-1.7q.1-2.4.1-5.2V73.6c0-3.5.1-6.9.1-10.8v-4.7l-.2-7.8c-.1-3.2-.2-3.8-.3-3.8 0 1.9-.1 3.9-.1 5.9v17.3c0 3.1 0 6.3-.1 9.2v15.7c0 3.3 0 5.8.1 8.5H92.4c-.4.1-1.3.1-.9.1l3.5.2h8v4.2l-1.9-.2H88.4c-.4.1-1.3.1-.9.1l3.5.2h12.1c.1.3.1.1.2-1.2s.1-2 .1-3h3.7c.1.3.1.1.2-1.2s.1-5.3.2-8.7V69.3c.1-3.8.2-7.2.1-11z" fill="#111111" style="stroke: rgb(0, 0, 0); stroke-miterlimit: 1; stroke-width: 0.435795px;"/>
  </g>
  <g id="SvgjsG1008" featurekey="rDwwlG-0" transform="matrix(3.125, 0, 0, 3.125, 74, 45)" fill="#111111">
    <g xmlns="http://www.w3.org/2000/svg" display="none" fill="#111111">
      <rect x="-153.365" y="-18.667" display="inline" fill="#111111" width="473.333" height="236"/>
    </g>
    <g xmlns="http://www.w3.org/2000/svg" display="none" fill="#111111">
      <ellipse transform="matrix(0.7071 -0.7071 0.7071 0.7071 -6.6274 16)" display="inline" cx="16" cy="16" rx="16" ry="16" fill="#111111"/>
      <line display="inline" fill="#111111" stroke="#111111" stroke-miterlimit="10" x1="7.837" y1="15.12" x2="15.267" y2="7.69"/>
      <line display="inline" fill="#111111" stroke="#111111" stroke-miterlimit="10" x1="7.968" y1="19.579" x2="20.033" y2="7.514"/>
      <line display="inline" fill="#111111" stroke="#111111" stroke-miterlimit="10" x1="7.759" y1="24.377" x2="24.241" y2="7.896"/>
      <line display="inline" fill="#111111" stroke="#111111" stroke-miterlimit="10" x1="12.518" y1="24.209" x2="24.064" y2="12.662"/>
      <line display="inline" fill="#111111" stroke="#111111" stroke-miterlimit="10" x1="16.83" y1="24.486" x2="24.22" y2="17.096"/>
    </g>
    <g xmlns="http://www.w3.org/2000/svg" fill="#111111">
      <path d="M16,0C11.905,0,7.81,1.562,4.686,4.686c-6.248,6.248-6.248,16.379,0,22.627C7.81,30.438,11.905,32,16,32   c4.095,0,8.19-1.562,11.314-4.686c6.248-6.248,6.248-16.379,0-22.627C24.19,1.562,20.095,0,16,0z M26.607,26.607   C23.773,29.44,20.007,31,16,31s-7.773-1.56-10.607-4.393c-5.849-5.849-5.849-15.365,0-21.213C8.227,2.56,11.993,1,16,1   s7.773,1.56,10.607,4.393C32.455,11.242,32.455,20.758,26.607,26.607z" fill="#111111"/>
      <rect x="6.298" y="10.905" transform="matrix(0.7071 -0.7071 0.7071 0.7071 -4.681 11.5091)" width="10.508" height="1" fill="#111111"/>
      <rect x="5.469" y="13.046" transform="matrix(0.7071 -0.7071 0.7071 0.7071 -5.4781 13.8675)" width="17.063" height="1" fill="#111111"/>
      <rect x="4.346" y="15.637" transform="matrix(0.7071 -0.7071 0.7071 0.7071 -6.7239 16.04)" width="23.307" height="1" fill="#111111"/>
      <rect x="10.126" y="17.936" transform="matrix(0.7071 -0.7071 0.7071 0.7071 -7.6786 18.3333)" width="16.33" height="1" fill="#111111"/>
      <rect x="15.3" y="20.292" transform="matrix(0.7071 -0.7071 0.7071 0.7071 -8.6902 20.603)" width="10.451" height="1" fill="#111111"/>
    </g>
    <g xmlns="http://www.w3.org/2000/svg" display="none" fill="#111111">
      <g display="inline" fill="#111111">
        <path fill="#111111" d="M16,31.5c-4.141,0-8.032-1.612-10.96-4.54S0.5,20.141,0.5,16c0-4.14,1.612-8.033,4.54-10.96    C7.968,2.112,11.859,0.5,16,0.5s8.032,1.612,10.96,4.54C29.888,7.967,31.5,11.86,31.5,16c0,4.141-1.612,8.032-4.54,10.96    S20.141,31.5,16,31.5z"/>
        <g fill="#111111">
          <path fill="#111111" d="M16,1c4.007,0,7.773,1.56,10.607,4.393c5.848,5.849,5.848,15.365,0,21.213C23.773,29.44,20.007,31,16,31     c-4.007,0-7.773-1.56-10.607-4.393c-5.849-5.849-5.849-15.365,0-21.213C8.227,2.56,11.993,1,16,1 M16,0     C11.905,0,7.81,1.562,4.686,4.686c-6.248,6.248-6.248,16.379,0,22.627C7.81,30.438,11.905,32,16,32s8.19-1.562,11.314-4.686     c6.248-6.248,6.248-16.379,0-22.627C24.19,1.562,20.095,0,16,0L16,0z"/>
        </g>
      </g>
      <line display="inline" fill="#111111" stroke="#111111" stroke-miterlimit="10" x1="7.837" y1="15.12" x2="15.267" y2="7.69"/>
      <line display="inline" fill="#111111" stroke="#111111" stroke-miterlimit="10" x1="7.968" y1="19.579" x2="20.033" y2="7.514"/>
      <line display="inline" fill="#111111" stroke="#111111" stroke-miterlimit="10" x1="7.759" y1="24.377" x2="24.241" y2="7.896"/>
      <line display="inline" fill="#111111" stroke="#111111" stroke-miterlimit="10" x1="12.518" y1="24.209" x2="24.064" y2="12.662"/>
      <line display="inline" fill="#111111" stroke="#111111" stroke-miterlimit="10" x1="16.83" y1="24.486" x2="24.22" y2="17.096"/>
    </g>
    <g xmlns="http://www.w3.org/2000/svg" display="none" fill="#111111">
      <path display="inline" d="M4.686,4.686c-6.248,6.248-6.248,16.379,0,22.627c6.248,6.248,16.379,6.248,22.627,0   c6.248-6.248,6.248-16.379,0-22.627C21.065-1.562,10.935-1.562,4.686,4.686z M19.68,7.16l0.707,0.707L8.321,19.933l-0.707-0.707   L19.68,7.16z M14.914,7.336l0.707,0.707l-7.431,7.43l-0.707-0.707L14.914,7.336z M12.871,24.562l-0.707-0.707l11.547-11.547   l0.707,0.707L12.871,24.562z M17.184,24.84l-0.707-0.707l7.39-7.39l0.707,0.707L17.184,24.84z M8.113,24.73l-0.707-0.707   l16.48-16.481l0.707,0.707L8.113,24.73z" fill="#111111"/>
    </g>
  </g>
  <g id="SvgjsG1009" featurekey="4AZ1rv-0" transform="matrix(1.904571, 0, 0, 1.904571, 27.666801, 154.220123)" fill="#111111">
    <path d="M9.84 15.36 l3.06 0.86 c-0.38 2.3 -2.1 4.06 -5.62 4.06 c-4.64 0 -6.58 -3.04 -6.58 -7 c0 -4.26 2.3 -6.78 6.6 -6.78 c3.6 0 5.62 1.76 5.42 4.3 l-3.3 0.74 c0.08 -1.42 -0.42 -2.26 -2.2 -2.26 c-2.3 0 -2.98 1.34 -2.98 3.98 c0 2.92 0.9 4.24 2.96 4.24 c1.3 0 2.62 -0.56 2.64 -2.14 z M13.58 9.66 l0 -2.88 l11.24 0 l0 2.88 l-3.94 0 l0 10.34 l-3.36 0 l0 -10.34 l-3.94 0 z M25.6 16.34 l3.3 -0.68 c0.02 1.4 1.1 1.84 2.2 1.84 c1.04 0 1.64 -0.38 1.64 -1 c0 -2.1 -6.78 -1.14 -6.78 -5.94 c0 -2.64 2.04 -4.06 5.1 -4.06 c3.08 0 5.02 1.46 4.92 3.58 l-3.3 0.68 c-0.02 -0.54 -0.14 -1.48 -1.7 -1.48 c-1.08 0 -1.62 0.44 -1.62 1.04 c0 2.18 6.78 1.04 6.78 5.82 c0 2.4 -1.7 4.14 -5.08 4.14 c-3.6 0 -5.58 -1.96 -5.46 -3.94 z M42.14 20 l0 -13.22 l5.42 0 c4.34 0 6.46 2.66 6.46 6.36 c0 3.56 -1.98 6.86 -6.44 6.86 l-5.44 0 z M45.5 17.18 l2 0 c1.98 0 2.98 -1.3 2.98 -3.9 c0 -2.54 -0.96 -3.68 -3.1 -3.68 l-1.88 0 l0 7.58 z M64.5 16.04 l-5.92 0 c0.08 1.34 0.46 1.92 1.76 1.92 c0.8 0 1.28 -0.22 1.42 -0.94 l2.74 0.48 c-0.52 1.74 -1.76 2.78 -4.26 2.78 c-3.12 0 -4.92 -1.62 -4.92 -4.84 c0 -2.6 1.16 -5.06 4.78 -5.06 c2.94 0 4.4 1.62 4.4 4.64 l0 1.02 z M59.98 12.6 c-0.76 0 -1.2 0.36 -1.36 1.54 l2.6 0 l0 -0.02 c0 -1.1 -0.42 -1.52 -1.24 -1.52 z M65.64 17.5 l2.94 -0.46 c-0.08 0.48 0.28 0.92 1.26 0.92 c0.58 0 1.04 -0.18 1.04 -0.56 c0 -1.2 -5.04 -0.48 -5.04 -4 c0 -1.82 1.34 -3.02 3.98 -3.02 c2.4 0 4.28 0.98 3.96 2.72 l-3.12 0.54 c0.12 -0.44 -0.14 -0.94 -0.88 -0.94 c-0.6 0 -0.78 0.3 -0.78 0.56 c0 1.4 5.08 0.5 5.08 3.96 c0 2.14 -1.92 3.06 -4.36 3.06 c-2.32 0 -4.28 -0.88 -4.08 -2.78 z M75.46 7.4 c0 -0.96 0.8 -1.74 1.76 -1.74 c0.98 0 1.76 0.78 1.76 1.74 s-0.78 1.76 -1.76 1.76 c-0.96 0 -1.76 -0.8 -1.76 -1.76 z M75.66 20 l0 -9.34 l3.12 0 l0 9.34 l-3.12 0 z M80.66 13.84 c0 -2.14 1.58 -3.46 4.5 -3.46 c0.94 0 1.74 0.14 2.4 0.42 c0.22 -0.28 0.3 -0.5 0.3 -1.1 l0 -1.14 l2.46 0.38 c0.06 0.36 0.08 0.66 0.08 0.86 c0 0.82 -0.34 1.52 -1.42 2.04 c0.38 0.5 0.6 1.16 0.6 1.92 c0 2.2 -1.66 3.5 -4.52 3.5 c-0.66 0 -1.24 -0.06 -1.76 -0.2 c-0.2 0.16 -0.32 0.34 -0.32 0.52 c0 0.76 1.9 0.7 3.38 0.8 c2.48 0.18 3.94 0.88 3.94 2.92 c0 2.78 -2.68 3.54 -5.1 3.54 c-2.68 0 -4.76 -0.92 -4.76 -2.56 c0 -1.02 0.76 -1.64 1.62 -2.16 c-1 -0.26 -1.62 -0.86 -1.62 -1.74 c0 -0.76 0.48 -1.38 1.34 -2.04 c-0.74 -0.58 -1.12 -1.44 -1.12 -2.5 z M86.25999999999999 20.86 c-1.08 -0.06 -1.48 -0.1 -2.26 -0.18 c-0.7 0.48 -0.88 0.74 -0.88 1.04 c0 0.44 0.38 0.9 2.08 0.9 c1.38 0 2.28 -0.3 2.28 -0.96 c0 -0.46 -0.42 -0.76 -1.22 -0.8 z M85.1 15.2 c0.82 0 1.24 -0.5 1.24 -1.4 c0 -0.88 -0.42 -1.36 -1.22 -1.36 s-1.22 0.5 -1.22 1.4 c0 0.84 0.36 1.36 1.2 1.36 z M91.48 20 l0 -9.34 l2.9 0 l0 1.48 c0.24 -0.56 1.02 -1.76 3.1 -1.76 c1.38 0 2.98 0.56 2.98 3.48 l0 6.14 l-3.12 0 l0 -5.34 c0 -1.1 -0.26 -1.64 -0.9 -1.64 c-1.12 0 -1.68 1.56 -1.84 2.16 l0 4.82 l-3.12 0 z" fill="#111111"/>
  </g>
</svg>