<svg xmlns:xlink="http://www.w3.org/1999/xlink" xmlns="http://www.w3.org/2000/svg" viewBox="0 0 353.691469171096 60.67656675470818" preserveAspectRatio="xMidYMid meet" class="css-1nkzpyt" id="dhafagba" width="353.691469171096"  height="60.67656675470818" ><defs id="SvgjsDefs1001"></defs><g id="SvgjsG1007" featurekey="symbolFeature-0" transform="matrix(23.63756459989092,0,0,23.63756459989092,250.33842847937484,-27.272540441075236)" fill="#2CAEBA"><title xmlns="http://www.w3.org/2000/svg">icon</title><path xmlns="http://www.w3.org/2000/svg" d="M.76105,1.331a.185.185,0,0,0,.07256.16612.61547.61547,0,0,0,.11976.07763c.06486.03511.12857.071.19657.1009a4.51654,4.51654,0,0,0,.447.165q.05491.01754.11012.03431a1.9216,1.9216,0,0,0-.22417-.0137l-.00412-.0022a.55261.55261,0,0,0-.36048-.05595l-.00688.00157c.01.001.00547.00168-.0138.00222l-.02047.00536a.42511.42511,0,0,0-.0487.0177.24071.24071,0,0,0-.08055.0596.19841.19841,0,0,0-.049.12857A.43429.43429,0,0,0,.797,2.134a.39625.39625,0,0,0-.01307.359.76229.76229,0,0,0,.05106.09372.90786.90786,0,0,0,.06528.0886,1.14538,1.14538,0,0,0,.16167.15781,2.10421,2.10421,0,0,0,.3769.23514q.1068.05459.21778.10191l-.01448.008a.27931.27931,0,0,0-.13491.26538.26458.26458,0,0,0,.16221.19545.82636.82636,0,0,0,.27659.07328.94235.94235,0,0,0,.24274.00117,1.24591,1.24591,0,0,0,.32014-.09356.739.739,0,0,0,.24393-.16281,1.09462,1.09462,0,0,0,.17664-.00234.5954.5954,0,0,0,.33207-.13288A.2128.2128,0,0,0,3.279,2.9862q-.018-.019-.03726-.03656a.62385.62385,0,0,0,.01745-.17446.88986.88986,0,0,0-.10509-.3632,1.50015,1.50015,0,0,0-.108-.18148c.20808.084.40932.182.61517.27a2.51309,2.51309,0,0,0,.40626.14621c.04488.01062.08811.02477.13264.03607.05223.01324.13819.01588.16406-.06147a.07709.07709,0,0,0-.01665-.09122,1.38784,1.38784,0,0,0-.413-.22354c-.14878-.05366-.30121-.0995-.45486-.14188-.17285-.04772-.347-.09227-.5212-.13678Q2.91365,2.01347,2.86833,2A1.84124,1.84124,0,0,0,2.644,1.78032a2.93465,2.93465,0,0,0-.79072-.4652,2.23475,2.23475,0,0,0-.71664-.15748.52832.52832,0,0,0-.27885.04191A.18386.18386,0,0,0,.76105,1.331Zm.38743.80653-.00166-.00178a.53345.53345,0,0,1-.05946-.077c.02063-.00777.04128-.01457.06028-.02026a.95523.95523,0,0,1,.19161-.03738q.04087-.0034.08133-.00423c.01338.00779.02643.016.039.02486a.52964.52964,0,0,1,.05057.04065l.01649.01581.02325.02753a.39451.39451,0,0,1,.06944.13344,1.08126,1.08126,0,0,1,.04856.221,2.07419,2.07419,0,0,1-.23668-.11475,1.63408,1.63408,0,0,1-.18373-.123c-.02489-.01925-.04966-.03911-.07312-.06014l-.01726-.01619Zm.6464.37152c.0004-.06128.00339-.12249-.00143-.18312a.59592.59592,0,0,0-.04973-.19963A.51956.51956,0,0,0,1.673,2.01155q.03228.004.06435.00891.08515.01291.17046.0306a.2569.2569,0,0,0,.04785.14244,1.14215,1.14215,0,0,0,.09211.12841,1.08575,1.08575,0,0,0,.14322.13952,1.11005,1.11005,0,0,0-.21832-.04051.08976.08976,0,0,0-.07309.037.094.094,0,0,0-.01672.07983l.00026.00126-.048-.01588Zm1.04133-.03794.01443.01427.015.01658a.42735.42735,0,0,1,.03782.05054l.01062.01855c-.0043-.00774.00542.01284.00711.01785l.00428.01817.00023.00419.00012.00192-.00094.005-.0004.001-.00114.00246-.00423.0054-.00042.00051L2.908,2.63658l-.00975.007-.02175.01118-.022.00917c.01464-.00564-.01.00253-.01057.00269a.398.398,0,0,1-.0407.00887,3.05586,3.05586,0,0,0-.30182-.203A1.47416,1.47416,0,0,1,2.169,2.211a1.00192,1.00192,0,0,1-.08666-.1181,2.36322,2.36322,0,0,1,.48061.1863A1.23133,1.23133,0,0,1,2.83621,2.47109Zm-.16038.37569.05267-.00252.01518.01333a.77932.77932,0,0,1,.13243.15376c.009.01366.01771.02753.02589.04175l.00982.01906.00049.00108a.60642.60642,0,0,1-.17063-.04175,1.19779,1.19779,0,0,1-.1957-.08474,1.44738,1.44738,0,0,1-.17081-.11662A1.846,1.846,0,0,0,2.67583,2.84678Zm.1383-.607-.00652-.00444a1.7322,1.7322,0,0,0-.21378-.12083q.07354.01849.14729.03656Q2.77869,2.19436,2.81413,2.23981Zm-1.32774.64191c-.04938-.02557-.11861-.06526-.17592-.10219a1.54834,1.54834,0,0,1-.173-.12923c-.02578-.02236-.05045-.046-.07426-.07059L1.05188,2.568l-.01474-.01623c-.01317-.01471-.02566-.03-.03784-.04559a.76528.76528,0,0,1-.05621-.0818l-.00922-.016L.9267,2.39388A.42434.42434,0,0,1,.91,2.352a.21569.21569,0,0,1-.00758-.13442l.00114-.00645L.911,2.194l.0062-.01214C.91453,2.187.9223,2.17367.92366,2.17163l.01282-.017.01273.02224a.5659.5659,0,0,0,.07426.0952,1.27888,1.27888,0,0,0,.32711.23642,2.89488,2.89488,0,0,0,.68551.254c.01752.01668.03546.03291.05338.049a2.30781,2.30781,0,0,0,.3348.26393,1.26594,1.26594,0,0,0,.233.11148l-.021.00117-.05195.00154c-.03766.00066-.075-.00044-.11213-.00245A1.7802,1.7802,0,0,1,2.25933,3.162l-.00639-.0011-.00608-.00122-.02507-.005-.05-.011c-.036-.00833-.07162-.01771-.107-.02772-.06781-.01913-.13431-.04147-.19984-.06575A3.37616,3.37616,0,0,1,1.48639,2.88172Zm.92142.66366a1.12182,1.12182,0,0,1-.17264.04748c-.02044.00407-.041.00727-.06137.00978l-.0044.00049-.00756.00063-.02928.00143A1.08931,1.08931,0,0,1,1.87571,3.582a.72068.72068,0,0,1-.13241-.04191.24.24,0,0,1-.04638-.02456.27647.27647,0,0,1-.04411-.03481l-.00589-.00648-.008-.01039-.01266-.02035c.00365.00636-.00482-.01324-.006-.01717l-.0026-.01015c.0018.00763-.00077-.00814-.00093-.01069-.0003-.00458-.00023-.00926-.00019-.01389l0-.00164.00033-.00276a.21826.21826,0,0,1,.00634-.03041l.00058-.00232.00157-.00409.00664-.016.00659-.01273c-.00437.00814.00594-.00811.00765-.01039l.0072-.00854c-.0043.00491.00468-.00433.00646-.00587l.01221-.00975.00234-.0018.00166-.00094A.233.233,0,0,1,1.70445,3.27l.00973-.00386.01705-.005c.01092-.00295.022-.0051.033-.007l.01707-.00255.0113-.00124a.62187.62187,0,0,1,.07071-.00117,2.50626,2.50626,0,0,0,.37646.09637q.05024.00867.10139.01448a1.80054,1.80054,0,0,0,.20761.06617q.03551.00835.07171.01478A.92986.92986,0,0,1,2.40781,3.54538Zm.79233-.44653a.249.249,0,0,1,.02056.03193l.00274.00662.00517.01579.00105.0043.00077.01495L3.2297,3.177l-.00222.00842-.0043.00957L3.22212,3.197l-.00243.00344-.01261.01567-.00014.00012-.00522.005a.328.328,0,0,1-.03962.031l-.01307.008-.02032.01132c-.01375.00723-.02783.01349-.042.01937a.50119.50119,0,0,1-.0871.02528.69994.69994,0,0,1-.14991.01366.6363.6363,0,0,0,.24573-.13234.46592.46592,0,0,0,.09248-.11386Zm-.11957-.32659c.00161.01385.00262.02793.00335.04206l.00051.02007c-.03672-.02206-.07459-.04245-.11288-.06184a.24905.24905,0,0,0,.074-.07349l.01375-.02519c.00631.02154.01186.04358.01642.06594l.00208.01158ZM.992,1.321l.02526-.00166.033-.0007c.02318-.00014.04624.00063.06919.00192.0342.00187.06809.00519.10179.009a2.29822,2.29822,0,0,1,.80215.26175c.05232.02741.12551.07017.18389.107.065.04107.12792.08516.18892.13173q.04077.03108.08062.06425c-.038-.0094-.07639-.01766-.11548-.02341-.2491-.06841-.49645-.14052-.74038-.22155a4.26662,4.26662,0,0,1-.44438-.16873c-.05426-.025-.10759-.05176-.16095-.07836l-.00765-.004L.99757,1.39275l-.03116-.0192A.28072.28072,0,0,1,.93778,1.352L.93039,1.34511.923,1.33557l.00014-.00009.0044-.00178.00622-.00185A.34865.34865,0,0,1,.992,1.321Z" fill="#2CAEBA"></path></g><g id="SvgjsG1008" featurekey="nameLeftFeature-0" transform="matrix(2.3573992785539817,0,0,2.3573992785539817,-2.1216584514221255,0.421384112345482)" fill="#111111"><path d="M12.96 18.5 c-1.24 1.12 -2.9 1.7 -4.76 1.7 c-3.92 0 -7.3 -2.94 -7.3 -7.2 s3.38 -7.2 7.3 -7.2 c1.84 0 3.48 0.6 4.68 1.66 l-1.76 1.98 c-0.74 -0.52 -1.74 -0.9 -2.76 -0.9 c-2.52 0 -4.42 1.86 -4.42 4.46 s1.9 4.46 4.42 4.46 c1.06 0 2.1 -0.4 2.86 -1 z M24.36 6 l0 2.68 l-3.48 0 l0 11.32 l-2.92 0 l0 -11.32 l-3.5 0 l0 -2.68 l9.9 0 z M30.34 5.76 c2.46 0 4.02 1.54 4.76 2.9 l-2.16 1.28 c-0.76 -1.06 -1.5 -1.6 -2.6 -1.6 c-0.98 0 -1.7 0.58 -1.7 1.38 s0.46 1.22 1.56 1.62 l0.96 0.34 c3.1 1.1 4.32 2.48 4.32 4.4 c0 2.82 -2.68 4.22 -5.06 4.22 c-2.52 0 -4.48 -1.5 -5.16 -3.46 l2.24 -1.18 c0.5 1.02 1.34 2 2.92 2 c1.14 0 2.02 -0.5 2.02 -1.54 c0 -1 -0.6 -1.44 -2.12 -2.02 l-0.86 -0.3 c-2.06 -0.74 -3.72 -1.76 -3.72 -4.2 c0 -2.24 2.1 -3.84 4.6 -3.84 z" fill="#111111"></path></g><g id="SvgjsG1009" featurekey="nameRightFeature-0" transform="matrix(2.3573992785539817,0,0,2.3573992785539817,85.02672227176285,0.42137961596318974)" fill="#111111"><path d="M10.64 6 c4.18 0 7.06 3.08 7.06 7.06 c0 3.86 -2.88 6.94 -7.06 6.94 l-3.44 0 l0 -14 l3.44 0 z M10.620000000000001 19.44 c3.9 0 6.5 -2.82 6.5 -6.38 c0 -3.68 -2.6 -6.5 -6.5 -6.5 l-2.84 0 l0 12.88 l2.84 0 z M20.28 19.42 l7.28 0 l0 0.58 l-7.68 0 l-0.18 0 l0 -14 l0.58 0 l7.1 0 l0 0.58 l-7.1 0 l0 6.1 l5.66 0 l0 0.58 l-5.66 0 l0 6.16 z M33.7 5.76 c1.96 0 3.58 1.34 4.08 2.98 l-0.48 0.18 c-0.56 -1.48 -1.82 -2.6 -3.6 -2.6 c-2 0 -3.36 1.16 -3.36 2.74 c0 1.42 0.96 2.4 2.84 3.14 l1.06 0.4 c2.02 0.82 3.9 1.64 3.9 4.12 c0 2.04 -1.98 3.58 -4.34 3.58 c-2.24 0 -4.2 -1.38 -4.64 -3.42 l0.56 -0.18 c0.48 1.88 2.1 3.04 4.08 3.04 s3.76 -1.26 3.76 -3.04 c0 -2.1 -1.58 -2.84 -3.34 -3.52 l-1.2 -0.48 c-2.18 -0.86 -3.26 -2.02 -3.26 -3.62 c0 -1.86 1.54 -3.32 3.94 -3.32 z M40.620000000000005 6 l0 14 l-0.58 0 l0 -14 l0.58 0 z M56.34 13.3 c0.04 4.28 -3.02 6.9 -6.56 6.9 s-7.06 -2.98 -7.06 -7.2 s3.62 -7.2 7.06 -7.2 c1.68 0 3.26 0.6 4.56 1.66 l-0.4 0.46 c-1.18 -1 -2.64 -1.52 -4.1 -1.52 c-3.14 0 -6.54 2.68 -6.54 6.6 s3.28 6.6 6.48 6.6 c3 0 5.74 -2.02 6 -5.74 l-4.76 0 l0 -0.56 l5.32 0 z M68.7 6 l0.58 0 l0 14 l-0.44 0 l-9.82 -12.9 l0 12.9 l-0.58 0 l0 -14 l0.44 0 l9.82 12.94 l0 -12.94 z" fill="#111111"></path></g></svg>